<?xml version="1.0" encoding="UTF-8" standalone="no"?>
<!DOCTYPE svg PUBLIC "-//W3C//DTD SVG 1.1//EN" "http://www.w3.org/Graphics/SVG/1.1/DTD/svg11.dtd">
<svg xmlns="http://www.w3.org/2000/svg" version="1.1" viewBox="0.00 0.00 60.00 60.00">
<g stroke-width="2.00" fill="none" stroke-linecap="butt">
<path stroke="#809483" vector-effect="non-scaling-stroke" d="
  M 46.97 4.68
  A 0.64 0.64 0.0 0 0 46.33 4.04
  L 13.63 4.04
  A 0.64 0.64 0.0 0 0 12.99 4.68
  L 12.99 7.34
  A 0.64 0.64 0.0 0 0 13.63 7.98
  L 46.33 7.98
  A 0.64 0.64 0.0 0 0 46.97 7.34
  L 46.97 4.68"
/>
<path stroke="#809483" vector-effect="non-scaling-stroke" d="
  M 36.24 29.65
  Q 42.21 27.93 42.73 22.37
  C 43.13 18.11 40.87 13.98 36.51 13.09
  Q 28.92 11.53 18.73 12.48
  Q 18.25 12.53 18.25 13.01
  L 18.24 48.98
  Q 18.24 49.45 18.71 49.46
  Q 25.99 49.62 33.24 49.37
  C 45.17 48.95 49.06 33.08 36.25 30.08
  Q 35.40 29.89 36.24 29.65"
/>
<path stroke="#809483" vector-effect="non-scaling-stroke" d="
  M 46.97 54.63
  A 0.62 0.62 0.0 0 0 46.35 54.01
  L 13.61 54.01
  A 0.62 0.62 0.0 0 0 12.99 54.63
  L 12.99 57.35
  A 0.62 0.62 0.0 0 0 13.61 57.97
  L 46.35 57.97
  A 0.62 0.62 0.0 0 0 46.97 57.35
  L 46.97 54.63"
/>
<path stroke="#809483" vector-effect="non-scaling-stroke" d="
  M 22.52 16.39
  L 22.58 27.95
  A 0.28 0.28 0.0 0 0 22.86 28.23
  L 31.66 28.18
  A 6.64 5.31 -0.3 0 0 38.27 22.84
  L 38.27 21.34
  A 6.64 5.31 -0.3 0 0 31.60 16.06
  L 22.80 16.11
  A 0.28 0.28 0.0 0 0 22.52 16.39"
/>
<path stroke="#809483" vector-effect="non-scaling-stroke" d="
  M 22.55 32.21
  L 22.55 45.45
  A 0.29 0.29 0.0 0 0 22.84 45.74
  L 32.03 45.74
  A 7.36 6.23 -0.0 0 0 39.39 39.51
  L 39.39 38.15
  A 7.36 6.23 0.0 0 0 32.03 31.92
  L 22.84 31.92
  A 0.29 0.29 0.0 0 0 22.55 32.21"
/>
</g>
<path fill="#ffde59" d="
  M 0.00 0.00
  L 60.00 0.00
  L 60.00 60.00
  L 0.00 60.00
  L 0.00 0.00
  Z
  M 46.97 4.68
  A 0.64 0.64 0.0 0 0 46.33 4.04
  L 13.63 4.04
  A 0.64 0.64 0.0 0 0 12.99 4.68
  L 12.99 7.34
  A 0.64 0.64 0.0 0 0 13.63 7.98
  L 46.33 7.98
  A 0.64 0.64 0.0 0 0 46.97 7.34
  L 46.97 4.68
  Z
  M 36.24 29.65
  Q 42.21 27.93 42.73 22.37
  C 43.13 18.11 40.87 13.98 36.51 13.09
  Q 28.92 11.53 18.73 12.48
  Q 18.25 12.53 18.25 13.01
  L 18.24 48.98
  Q 18.24 49.45 18.71 49.46
  Q 25.99 49.62 33.24 49.37
  C 45.17 48.95 49.06 33.08 36.25 30.08
  Q 35.40 29.89 36.24 29.65
  Z
  M 46.97 54.63
  A 0.62 0.62 0.0 0 0 46.35 54.01
  L 13.61 54.01
  A 0.62 0.62 0.0 0 0 12.99 54.63
  L 12.99 57.35
  A 0.62 0.62 0.0 0 0 13.61 57.97
  L 46.35 57.97
  A 0.62 0.62 0.0 0 0 46.97 57.35
  L 46.97 54.63
  Z"
/>
<rect fill="#004aad" x="12.99" y="4.04" width="33.98" height="3.94" rx="0.64"/>
<path fill="#004aad" d="
  M 36.25 30.08
  C 49.06 33.08 45.17 48.95 33.24 49.37
  Q 25.99 49.62 18.71 49.46
  Q 18.24 49.45 18.24 48.98
  L 18.25 13.01
  Q 18.25 12.53 18.73 12.48
  Q 28.92 11.53 36.51 13.09
  C 40.87 13.98 43.13 18.11 42.73 22.37
  Q 42.21 27.93 36.24 29.65
  Q 35.40 29.89 36.25 30.08
  Z
  M 22.52 16.39
  L 22.58 27.95
  A 0.28 0.28 0.0 0 0 22.86 28.23
  L 31.66 28.18
  A 6.64 5.31 -0.3 0 0 38.27 22.84
  L 38.27 21.34
  A 6.64 5.31 -0.3 0 0 31.60 16.06
  L 22.80 16.11
  A 0.28 0.28 0.0 0 0 22.52 16.39
  Z
  M 22.55 32.21
  L 22.55 45.45
  A 0.29 0.29 0.0 0 0 22.84 45.74
  L 32.03 45.74
  A 7.36 6.23 -0.0 0 0 39.39 39.51
  L 39.39 38.15
  A 7.36 6.23 0.0 0 0 32.03 31.92
  L 22.84 31.92
  A 0.29 0.29 0.0 0 0 22.55 32.21
  Z"
/>
<path fill="#ffde59" d="
  M 22.52 16.39
  A 0.28 0.28 0.0 0 1 22.80 16.11
  L 31.60 16.06
  A 6.64 5.31 -0.3 0 1 38.27 21.34
  L 38.27 22.84
  A 6.64 5.31 -0.3 0 1 31.66 28.18
  L 22.86 28.23
  A 0.28 0.28 0.0 0 1 22.58 27.95
  L 22.52 16.39
  Z"
/>
<path fill="#ffde59" d="
  M 22.55 32.21
  A 0.29 0.29 0.0 0 1 22.84 31.92
  L 32.03 31.92
  A 7.36 6.23 0.0 0 1 39.39 38.15
  L 39.39 39.51
  A 7.36 6.23 0.0 0 1 32.03 45.74
  L 22.84 45.74
  A 0.29 0.29 0.0 0 1 22.55 45.45
  L 22.55 32.21
  Z"
/>
<rect fill="#004aad" x="12.99" y="54.01" width="33.98" height="3.96" rx="0.62"/>
</svg>
