<?xml version="1.0" encoding="UTF-8" standalone="no"?>
<!DOCTYPE svg PUBLIC "-//W3C//DTD SVG 1.1//EN" "http://www.w3.org/Graphics/SVG/1.1/DTD/svg11.dtd">
<svg xmlns="http://www.w3.org/2000/svg" version="1.1" viewBox="0.00 0.00 60.00 60.00">
<g stroke-width="2.00" fill="none" stroke-linecap="butt">
<path stroke="#809483" vector-effect="non-scaling-stroke" d="
  M 6.18 0.00
  L 6.10 6.39
  Q 6.09 7.00 6.70 7.00
  L 53.30 7.00
  A 0.60 0.59 90.0 0 0 53.89 6.40
  L 53.84 0.00"
/>
<path stroke="#809483" vector-effect="non-scaling-stroke" d="
  M 53.91 60.00
  L 53.95 53.95
  Q 53.95 53.49 53.49 53.49
  L 6.51 53.49
  Q 6.03 53.49 6.03 53.97
  L 6.01 60.00"
/>
<path stroke="#809483" vector-effect="non-scaling-stroke" d="
  M 38.51 28.68
  C 43.22 26.04 45.40 20.04 41.72 15.63
  C 37.50 10.58 23.41 11.66 16.09 11.86
  Q 15.48 11.88 15.48 12.48
  L 15.48 48.26
  Q 15.48 48.83 16.05 48.84
  Q 21.62 48.93 33.47 48.60
  Q 43.18 48.34 44.72 40.36
  C 45.70 35.25 43.60 31.04 38.58 29.41
  Q 37.71 29.13 38.51 28.68"
/>
<path stroke="#809483" vector-effect="non-scaling-stroke" d="
  M 9.05 0.00
  L 13.54 0.00"
/>
<path stroke="#809483" vector-effect="non-scaling-stroke" d="
  M 24.07 27.02
  C 26.72 26.99 35.05 25.81 34.50 21.54
  C 34.10 18.42 27.03 18.69 24.14 18.82
  Q 23.79 18.84 23.79 19.19
  L 23.79 26.75
  A 0.27 0.27 0.0 0 0 24.07 27.02"
/>
<path stroke="#809483" vector-effect="non-scaling-stroke" d="
  M 23.80 34.06
  L 23.82 41.72
  A 0.37 0.37 0.0 0 0 24.19 42.09
  L 30.12 42.07
  A 6.42 3.90 -0.2 0 0 36.53 38.15
  L 36.53 37.55
  A 6.42 3.90 -0.2 0 0 30.10 33.67
  L 24.17 33.69
  A 0.37 0.37 0.0 0 0 23.80 34.06"
/>
</g>
<path fill="#ffde59" d="
  M 0.00 0.00
  L 6.18 0.00
  L 6.10 6.39
  Q 6.09 7.00 6.70 7.00
  L 53.30 7.00
  A 0.60 0.59 90.0 0 0 53.89 6.40
  L 53.84 0.00
  L 60.00 0.00
  L 60.00 60.00
  L 53.91 60.00
  L 53.95 53.95
  Q 53.95 53.49 53.49 53.49
  L 6.51 53.49
  Q 6.03 53.49 6.03 53.97
  L 6.01 60.00
  L 0.00 60.00
  L 0.00 0.00
  Z
  M 38.51 28.68
  C 43.22 26.04 45.40 20.04 41.72 15.63
  C 37.50 10.58 23.41 11.66 16.09 11.86
  Q 15.48 11.88 15.48 12.48
  L 15.48 48.26
  Q 15.48 48.83 16.05 48.84
  Q 21.62 48.93 33.47 48.60
  Q 43.18 48.34 44.72 40.36
  C 45.70 35.25 43.60 31.04 38.58 29.41
  Q 37.71 29.13 38.51 28.68
  Z"
/>
<path fill="#004aad" d="
  M 6.18 0.00
  L 9.05 0.00
  L 13.54 0.00
  L 53.84 0.00
  L 53.89 6.40
  A 0.60 0.59 -90.0 0 1 53.30 7.00
  L 6.70 7.00
  Q 6.09 7.00 6.10 6.39
  L 6.18 0.00
  Z"
/>
<path fill="#ffde59" d="
  M 9.05 0.00
  L 13.54 0.00
  L 9.05 0.00
  Z"
/>
<path fill="#004aad" d="
  M 38.58 29.41
  C 43.60 31.04 45.70 35.25 44.72 40.36
  Q 43.18 48.34 33.47 48.60
  Q 21.62 48.93 16.05 48.84
  Q 15.48 48.83 15.48 48.26
  L 15.48 12.48
  Q 15.48 11.88 16.09 11.86
  C 23.41 11.66 37.50 10.58 41.72 15.63
  C 45.40 20.04 43.22 26.04 38.51 28.68
  Q 37.71 29.13 38.58 29.41
  Z
  M 24.07 27.02
  C 26.72 26.99 35.05 25.81 34.50 21.54
  C 34.10 18.42 27.03 18.69 24.14 18.82
  Q 23.79 18.84 23.79 19.19
  L 23.79 26.75
  A 0.27 0.27 0.0 0 0 24.07 27.02
  Z
  M 23.80 34.06
  L 23.82 41.72
  A 0.37 0.37 0.0 0 0 24.19 42.09
  L 30.12 42.07
  A 6.42 3.90 -0.2 0 0 36.53 38.15
  L 36.53 37.55
  A 6.42 3.90 -0.2 0 0 30.10 33.67
  L 24.17 33.69
  A 0.37 0.37 0.0 0 0 23.80 34.06
  Z"
/>
<path fill="#ffde59" d="
  M 34.50 21.54
  C 35.05 25.81 26.72 26.99 24.07 27.02
  A 0.27 0.27 0.0 0 1 23.79 26.75
  L 23.79 19.19
  Q 23.79 18.84 24.14 18.82
  C 27.03 18.69 34.10 18.42 34.50 21.54
  Z"
/>
<path fill="#ffde59" d="
  M 23.80 34.06
  A 0.37 0.37 0.0 0 1 24.17 33.69
  L 30.10 33.67
  A 6.42 3.90 -0.2 0 1 36.53 37.55
  L 36.53 38.15
  A 6.42 3.90 -0.2 0 1 30.12 42.07
  L 24.19 42.09
  A 0.37 0.37 0.0 0 1 23.82 41.72
  L 23.80 34.06
  Z"
/>
<path fill="#004aad" d="
  M 53.91 60.00
  L 6.01 60.00
  L 6.03 53.97
  Q 6.03 53.49 6.51 53.49
  L 53.49 53.49
  Q 53.95 53.49 53.95 53.95
  L 53.91 60.00
  Z"
/>
</svg>
