<?xml version="1.0" encoding="UTF-8" standalone="no"?>
<!DOCTYPE svg PUBLIC "-//W3C//DTD SVG 1.1//EN" "http://www.w3.org/Graphics/SVG/1.1/DTD/svg11.dtd">
<svg xmlns="http://www.w3.org/2000/svg" version="1.1" viewBox="0.00 0.00 60.00 60.00">
<g stroke-width="2.00" fill="none" stroke-linecap="butt">
<path stroke="#809483" vector-effect="non-scaling-stroke" d="
  M 46.9722 6.7597
  A 0.69 0.69 0.0 0 0 46.2834 6.0685
  L 13.6835 6.0116
  A 0.69 0.69 0.0 0 0 12.9923 6.7003
  L 12.9878 9.2803
  A 0.69 0.69 0.0 0 0 13.6766 9.9715
  L 46.2765 10.0284
  A 0.69 0.69 0.0 0 0 46.9677 9.3397
  L 46.9722 6.7597"
/>
<path stroke="#809483" vector-effect="non-scaling-stroke" d="
  M 36.23 29.63
  C 45.97 26.94 44.70 13.91 34.72 12.80
  Q 26.78 11.91 18.67 12.34
  Q 18.25 12.37 18.25 12.79
  L 18.24 48.98
  Q 18.24 49.44 18.71 49.45
  Q 25.99 49.62 33.23 49.38
  C 45.16 48.97 49.07 33.06 36.24 30.08
  Q 35.35 29.88 36.23 29.63"
/>
<path stroke="#809483" vector-effect="non-scaling-stroke" d="
  M 46.98 52.52
  A 0.52 0.52 0.0 0 0 46.46 52.00
  L 13.52 52.00
  A 0.52 0.52 0.0 0 0 13.00 52.52
  L 13.00 55.46
  A 0.52 0.52 0.0 0 0 13.52 55.98
  L 46.46 55.98
  A 0.52 0.52 0.0 0 0 46.98 55.46
  L 46.98 52.52"
/>
<path stroke="#809483" vector-effect="non-scaling-stroke" d="
  M 22.52 16.39
  L 22.58 27.95
  A 0.28 0.28 0.0 0 0 22.86 28.23
  L 31.66 28.18
  A 6.64 5.31 -0.3 0 0 38.27 22.84
  L 38.27 21.34
  A 6.64 5.31 -0.3 0 0 31.60 16.06
  L 22.80 16.11
  A 0.28 0.28 0.0 0 0 22.52 16.39"
/>
<path stroke="#809483" vector-effect="non-scaling-stroke" d="
  M 22.55 32.21
  L 22.55 45.45
  A 0.29 0.29 0.0 0 0 22.84 45.74
  L 32.03 45.74
  A 7.36 6.23 -0.0 0 0 39.39 39.51
  L 39.39 38.15
  A 7.36 6.23 0.0 0 0 32.03 31.92
  L 22.84 31.92
  A 0.29 0.29 0.0 0 0 22.55 32.21"
/>
</g>
<path fill="#ffde59" d="
  M 0.00 0.00
  L 60.00 0.00
  L 60.00 60.00
  L 0.00 60.00
  L 0.00 0.00
  Z
  M 46.9722 6.7597
  A 0.69 0.69 0.0 0 0 46.2834 6.0685
  L 13.6835 6.0116
  A 0.69 0.69 0.0 0 0 12.9923 6.7003
  L 12.9878 9.2803
  A 0.69 0.69 0.0 0 0 13.6766 9.9715
  L 46.2765 10.0284
  A 0.69 0.69 0.0 0 0 46.9677 9.3397
  L 46.9722 6.7597
  Z
  M 36.23 29.63
  C 45.97 26.94 44.70 13.91 34.72 12.80
  Q 26.78 11.91 18.67 12.34
  Q 18.25 12.37 18.25 12.79
  L 18.24 48.98
  Q 18.24 49.44 18.71 49.45
  Q 25.99 49.62 33.23 49.38
  C 45.16 48.97 49.07 33.06 36.24 30.08
  Q 35.35 29.88 36.23 29.63
  Z
  M 46.98 52.52
  A 0.52 0.52 0.0 0 0 46.46 52.00
  L 13.52 52.00
  A 0.52 0.52 0.0 0 0 13.00 52.52
  L 13.00 55.46
  A 0.52 0.52 0.0 0 0 13.52 55.98
  L 46.46 55.98
  A 0.52 0.52 0.0 0 0 46.98 55.46
  L 46.98 52.52
  Z"
/>
<rect fill="#004aad" x="-16.99" y="-1.98" transform="translate(29.98,8.02) rotate(0.1)" width="33.98" height="3.96" rx="0.69"/>
<path fill="#004aad" d="
  M 36.24 30.08
  C 49.07 33.06 45.16 48.97 33.23 49.38
  Q 25.99 49.62 18.71 49.45
  Q 18.24 49.44 18.24 48.98
  L 18.25 12.79
  Q 18.25 12.37 18.67 12.34
  Q 26.78 11.91 34.72 12.80
  C 44.70 13.91 45.97 26.94 36.23 29.63
  Q 35.35 29.88 36.24 30.08
  Z
  M 22.52 16.39
  L 22.58 27.95
  A 0.28 0.28 0.0 0 0 22.86 28.23
  L 31.66 28.18
  A 6.64 5.31 -0.3 0 0 38.27 22.84
  L 38.27 21.34
  A 6.64 5.31 -0.3 0 0 31.60 16.06
  L 22.80 16.11
  A 0.28 0.28 0.0 0 0 22.52 16.39
  Z
  M 22.55 32.21
  L 22.55 45.45
  A 0.29 0.29 0.0 0 0 22.84 45.74
  L 32.03 45.74
  A 7.36 6.23 -0.0 0 0 39.39 39.51
  L 39.39 38.15
  A 7.36 6.23 0.0 0 0 32.03 31.92
  L 22.84 31.92
  A 0.29 0.29 0.0 0 0 22.55 32.21
  Z"
/>
<path fill="#ffde59" d="
  M 22.52 16.39
  A 0.28 0.28 0.0 0 1 22.80 16.11
  L 31.60 16.06
  A 6.64 5.31 -0.3 0 1 38.27 21.34
  L 38.27 22.84
  A 6.64 5.31 -0.3 0 1 31.66 28.18
  L 22.86 28.23
  A 0.28 0.28 0.0 0 1 22.58 27.95
  L 22.52 16.39
  Z"
/>
<path fill="#ffde59" d="
  M 22.55 32.21
  A 0.29 0.29 0.0 0 1 22.84 31.92
  L 32.03 31.92
  A 7.36 6.23 0.0 0 1 39.39 38.15
  L 39.39 39.51
  A 7.36 6.23 0.0 0 1 32.03 45.74
  L 22.84 45.74
  A 0.29 0.29 0.0 0 1 22.55 45.45
  L 22.55 32.21
  Z"
/>
<rect fill="#004aad" x="13.00" y="52.00" width="33.98" height="3.98" rx="0.52"/>
</svg>
