<?xml version="1.0" encoding="UTF-8" standalone="no"?>
<!DOCTYPE svg PUBLIC "-//W3C//DTD SVG 1.1//EN" "http://www.w3.org/Graphics/SVG/1.1/DTD/svg11.dtd">
<svg xmlns="http://www.w3.org/2000/svg" version="1.1" viewBox="0.00 0.00 230.00 80.00">
<g stroke-width="2.00" fill="none" stroke-linecap="butt">
<path stroke="#809483" vector-effect="non-scaling-stroke" d="
  M 207.08 13.36
  A 0.35 0.35 0.0 0 0 206.73 13.01
  L 22.59 13.01
  A 0.35 0.35 0.0 0 0 22.24 13.36
  L 22.24 19.66
  A 0.35 0.35 0.0 0 0 22.59 20.01
  L 206.73 20.01
  A 0.35 0.35 0.0 0 0 207.08 19.66
  L 207.08 13.36"
/>
<path stroke="#809483" vector-effect="non-scaling-stroke" d="
  M 106.4991 26.8136
  A 0.32 0.32 0.0 0 0 106.1808 26.4919
  L 101.6409 26.4681
  A 0.32 0.32 0.0 0 0 101.3192 26.7865
  L 101.3009 30.2864
  A 0.32 0.32 0.0 0 0 101.6192 30.6081
  L 106.1591 30.6319
  A 0.32 0.32 0.0 0 0 106.4808 30.3135
  L 106.4991 26.8136"
/>
<path stroke="#809483" vector-effect="non-scaling-stroke" d="
  M 116.61 26.77
  A 0.27 0.27 0.0 0 0 116.34 26.50
  L 111.76 26.50
  A 0.27 0.27 0.0 0 0 111.49 26.77
  L 111.49 51.33
  A 0.27 0.27 0.0 0 0 111.76 51.60
  L 116.34 51.60
  A 0.27 0.27 0.0 0 0 116.61 51.33
  L 116.61 26.77"
/>
<path stroke="#809483" vector-effect="non-scaling-stroke" d="
  M 126.8692 26.8035
  A 0.31 0.31 0.0 0 0 126.5608 26.4919
  L 122.0409 26.4682
  A 0.31 0.31 0.0 0 0 121.7293 26.7766
  L 121.7108 30.2965
  A 0.31 0.31 0.0 0 0 122.0192 30.6081
  L 126.5391 30.6318
  A 0.31 0.31 0.0 0 0 126.8507 30.3234
  L 126.8692 26.8035"
/>
<path stroke="#809483" vector-effect="non-scaling-stroke" d="
  M 38.41 38.32
  Q 43.26 34.84 40.52 30.21
  C 38.29 26.44 28.25 27.16 23.70 27.34
  Q 23.08 27.36 23.08 27.98
  L 23.10 50.98
  Q 23.10 51.51 23.63 51.53
  Q 29.58 51.70 35.48 51.42
  C 42.94 51.06 45.44 41.58 38.49 38.96
  Q 37.85 38.72 38.41 38.32"
/>
<path stroke="#809483" vector-effect="non-scaling-stroke" d="
  M 52.13 36.52
  L 52.22 34.98
  Q 52.25 34.46 51.73 34.46
  L 47.51 34.46
  Q 46.98 34.46 46.98 34.99
  L 46.99 51.28
  Q 46.99 51.56 47.28 51.56
  L 52.02 51.60
  A 0.28 0.28 0.0 0 0 52.31 51.30
  C 52.12 46.68 51.07 37.77 56.80 38.23
  Q 57.92 38.33 57.96 37.20
  L 58.04 35.04
  Q 58.08 33.98 57.03 33.98
  Q 54.01 33.97 52.80 36.69
  A 0.35 0.35 0.0 0 1 52.13 36.52"
/>
<path stroke="#809483" vector-effect="non-scaling-stroke" d="
  M 72.88 50.38
  L 73.02 51.03
  Q 73.11 51.45 73.54 51.44
  L 76.79 51.42
  Q 77.29 51.41 77.33 50.91
  Q 78.06 41.14 77.07 38.00
  C 75.22 32.10 66.28 33.70 62.60 36.10
  Q 61.81 36.61 62.28 37.42
  L 63.22 39.05
  A 1.00 0.99 61.0 0 0 64.54 39.43
  Q 67.76 37.72 71.38 38.50
  Q 71.97 38.62 72.19 39.18
  L 72.33 39.51
  A 0.58 0.58 0.0 0 1 71.77 40.31
  C 66.28 40.06 58.74 42.58 62.60 49.90
  A 1.62 1.57 0.5 0 0 63.27 50.56
  Q 67.78 52.83 72.02 50.03
  Q 72.70 49.58 72.88 50.38"
/>
<path stroke="#809483" vector-effect="non-scaling-stroke" d="
  M 88.41 38.18
  Q 91.27 37.81 93.94 39.02
  A 0.30 0.30 0.0 0 0 94.34 38.84
  L 95.31 35.97
  A 0.36 0.35 -66.8 0 0 95.14 35.54
  C 91.78 33.76 85.09 32.91 83.11 37.05
  C 80.39 42.72 86.78 44.58 90.67 45.41
  A 0.83 0.83 0.0 0 1 91.28 46.50
  L 91.13 46.92
  A 1.20 1.18 -83.2 0 1 90.14 47.71
  Q 87.61 47.97 85.33 46.85
  A 1.94 1.94 0.0 0 0 83.36 50.17
  Q 87.13 52.84 91.95 51.70
  C 95.87 50.78 97.99 47.03 95.66 43.51
  C 94.19 41.29 90.71 40.76 88.25 40.00
  A 0.93 0.93 0.0 0 1 88.41 38.18"
/>
<path stroke="#809483" vector-effect="non-scaling-stroke" d="
  M 142.58 50.25
  L 142.63 50.92
  Q 142.67 51.43 143.17 51.43
  L 146.71 51.42
  Q 147.10 51.42 147.12 51.04
  Q 147.71 41.78 146.98 38.74
  C 145.36 32.03 136.24 33.41 132.29 36.19
  Q 131.59 36.68 132.02 37.42
  L 133.05 39.18
  A 0.86 0.85 59.7 0 0 134.20 39.49
  Q 137.79 37.44 141.67 38.77
  A 0.83 0.83 0.0 0 1 141.34 40.38
  C 135.69 39.97 128.93 42.62 132.24 49.78
  A 1.48 1.44 1.7 0 0 132.90 50.46
  Q 137.59 52.93 141.88 49.92
  Q 142.52 49.48 142.58 50.25"
/>
<path stroke="#809483" vector-effect="non-scaling-stroke" d="
  M 157.58 35.44
  L 157.59 34.96
  Q 157.60 34.33 156.96 34.34
  L 153.04 34.40
  Q 152.48 34.41 152.48 34.97
  L 152.48 51.26
  Q 152.48 51.54 152.76 51.55
  L 157.28 51.63
  Q 157.69 51.63 157.69 51.22
  L 157.69 40.50
  A 1.97 1.97 0.0 0 1 159.50 38.54
  L 160.21 38.49
  Q 162.88 38.26 162.91 40.95
  L 163.03 51.30
  Q 163.03 51.57 163.30 51.57
  L 167.78 51.61
  Q 168.17 51.61 168.18 51.23
  C 168.34 44.24 170.07 28.52 158.10 35.74
  Q 157.57 36.07 157.58 35.44"
/>
<path stroke="#809483" vector-effect="non-scaling-stroke" d="
  M 183.85 50.26
  L 183.98 50.90
  Q 184.10 51.44 184.65 51.43
  L 187.96 51.42
  Q 188.43 51.42 188.46 50.95
  Q 189.05 41.11 188.07 38.00
  C 186.24 32.13 177.37 33.68 173.60 36.10
  Q 172.82 36.60 173.28 37.41
  L 174.29 39.17
  Q 174.70 39.88 175.42 39.49
  Q 178.61 37.76 182.22 38.43
  Q 182.94 38.56 183.22 39.24
  L 183.33 39.51
  A 0.54 0.54 0.0 0 1 182.83 40.26
  C 177.68 40.25 171.25 41.57 173.01 48.33
  C 174.17 52.80 180.23 51.94 183.08 49.96
  Q 183.69 49.54 183.85 50.26"
/>
<path stroke="#809483" vector-effect="non-scaling-stroke" d="
  M 201.46 45.41
  A 1.19 1.19 0.0 0 1 201.11 47.69
  Q 198.60 47.93 196.16 46.94
  A 1.91 1.91 0.0 0 0 194.39 50.30
  Q 197.13 52.12 201.47 51.93
  Q 207.63 51.65 207.30 45.53
  C 207.09 41.63 202.98 41.09 199.22 39.95
  A 0.63 0.63 0.0 0 1 198.83 39.10
  L 199.00 38.69
  A 1.38 1.37 17.9 0 1 200.58 37.89
  L 205.05 38.93
  Q 205.29 38.99 205.37 38.75
  L 206.32 35.95
  A 0.30 0.30 0.0 0 0 206.18 35.58
  C 202.33 33.53 194.50 32.80 193.65 38.60
  C 192.86 43.97 197.89 43.92 201.46 45.41"
/>
<path stroke="#809483" vector-effect="non-scaling-stroke" d="
  M 106.50 34.79
  A 0.33 0.33 0.0 0 0 106.17 34.46
  L 101.63 34.46
  A 0.33 0.33 0.0 0 0 101.30 34.79
  L 101.30 51.27
  A 0.33 0.33 0.0 0 0 101.63 51.60
  L 106.17 51.60
  A 0.33 0.33 0.0 0 0 106.50 51.27
  L 106.50 34.79"
/>
<path stroke="#809483" vector-effect="non-scaling-stroke" d="
  M 126.8644 34.7445
  A 0.29 0.29 0.0 0 0 126.5750 34.4540
  L 122.0350 34.4461
  A 0.29 0.29 0.0 0 0 121.7445 34.7355
  L 121.7156 51.2955
  A 0.29 0.29 0.0 0 0 122.0050 51.5860
  L 126.5450 51.5939
  A 0.29 0.29 0.0 0 0 126.8355 51.3045
  L 126.8644 34.7445"
/>
<path stroke="#809483" vector-effect="non-scaling-stroke" d="
  M 207.08 60.80
  A 0.31 0.31 0.0 0 0 206.77 60.49
  L 22.55 60.49
  A 0.31 0.31 0.0 0 0 22.24 60.80
  L 22.24 67.18
  A 0.31 0.31 0.0 0 0 22.55 67.49
  L 206.77 67.49
  A 0.31 0.31 0.0 0 0 207.08 67.18
  L 207.08 60.80"
/>
<path stroke="#809483" vector-effect="non-scaling-stroke" d="
  M 29.62 37.33
  C 31.33 37.01 34.98 36.46 35.48 34.40
  A 1.85 1.84 8.4 0 0 33.78 32.12
  L 29.62 31.90
  Q 28.58 31.85 28.58 32.89
  L 28.58 36.46
  Q 28.58 37.53 29.62 37.33"
/>
<path stroke="#809483" vector-effect="non-scaling-stroke" d="
  M 28.57 42.01
  L 28.59 46.79
  A 0.38 0.38 0.0 0 0 28.97 47.17
  L 32.43 47.16
  A 4.52 2.56 -0.2 0 0 36.94 44.59
  L 36.94 44.17
  A 4.52 2.56 -0.2 0 0 32.41 41.62
  L 28.95 41.63
  A 0.38 0.38 0.0 0 0 28.57 42.01"
/>
<path stroke="#809483" vector-effect="non-scaling-stroke" d="
  M 71.61 43.72
  L 67.08 44.38
  A 0.73 0.73 0.0 0 0 66.46 45.21
  L 66.54 45.77
  A 2.38 2.12 -8.3 0 0 69.20 47.52
  L 70.47 47.34
  A 2.38 2.12 -8.3 0 0 72.52 44.90
  L 72.44 44.33
  A 0.73 0.73 0.0 0 0 71.61 43.72"
/>
<path stroke="#809483" vector-effect="non-scaling-stroke" d="
  M 141.37 43.71
  L 136.79 44.39
  A 0.72 0.72 0.0 0 0 136.19 45.20
  L 136.27 45.78
  A 2.36 2.12 -8.4 0 0 138.92 47.53
  L 140.24 47.33
  A 2.36 2.12 -8.4 0 0 142.27 44.89
  L 142.18 44.32
  A 0.72 0.72 0.0 0 0 141.37 43.71"
/>
<path stroke="#809483" vector-effect="non-scaling-stroke" d="
  M 182.63 43.71
  L 178.05 44.39
  A 0.72 0.72 0.0 0 0 177.45 45.20
  L 177.52 45.72
  A 2.36 2.18 -8.4 0 0 180.18 47.53
  L 181.50 47.33
  A 2.36 2.18 -8.4 0 0 183.52 44.83
  L 183.44 44.32
  A 0.72 0.72 0.0 0 0 182.63 43.71"
/>
</g>
<path fill="#ffde59" d="
  M 0.00 0.00
  L 230.00 0.00
  L 230.00 80.00
  L 0.00 80.00
  L 0.00 0.00
  Z
  M 207.08 13.36
  A 0.35 0.35 0.0 0 0 206.73 13.01
  L 22.59 13.01
  A 0.35 0.35 0.0 0 0 22.24 13.36
  L 22.24 19.66
  A 0.35 0.35 0.0 0 0 22.59 20.01
  L 206.73 20.01
  A 0.35 0.35 0.0 0 0 207.08 19.66
  L 207.08 13.36
  Z
  M 106.4991 26.8136
  A 0.32 0.32 0.0 0 0 106.1808 26.4919
  L 101.6409 26.4681
  A 0.32 0.32 0.0 0 0 101.3192 26.7865
  L 101.3009 30.2864
  A 0.32 0.32 0.0 0 0 101.6192 30.6081
  L 106.1591 30.6319
  A 0.32 0.32 0.0 0 0 106.4808 30.3135
  L 106.4991 26.8136
  Z
  M 116.61 26.77
  A 0.27 0.27 0.0 0 0 116.34 26.50
  L 111.76 26.50
  A 0.27 0.27 0.0 0 0 111.49 26.77
  L 111.49 51.33
  A 0.27 0.27 0.0 0 0 111.76 51.60
  L 116.34 51.60
  A 0.27 0.27 0.0 0 0 116.61 51.33
  L 116.61 26.77
  Z
  M 126.8692 26.8035
  A 0.31 0.31 0.0 0 0 126.5608 26.4919
  L 122.0409 26.4682
  A 0.31 0.31 0.0 0 0 121.7293 26.7766
  L 121.7108 30.2965
  A 0.31 0.31 0.0 0 0 122.0192 30.6081
  L 126.5391 30.6318
  A 0.31 0.31 0.0 0 0 126.8507 30.3234
  L 126.8692 26.8035
  Z
  M 38.41 38.32
  Q 43.26 34.84 40.52 30.21
  C 38.29 26.44 28.25 27.16 23.70 27.34
  Q 23.08 27.36 23.08 27.98
  L 23.10 50.98
  Q 23.10 51.51 23.63 51.53
  Q 29.58 51.70 35.48 51.42
  C 42.94 51.06 45.44 41.58 38.49 38.96
  Q 37.85 38.72 38.41 38.32
  Z
  M 52.13 36.52
  L 52.22 34.98
  Q 52.25 34.46 51.73 34.46
  L 47.51 34.46
  Q 46.98 34.46 46.98 34.99
  L 46.99 51.28
  Q 46.99 51.56 47.28 51.56
  L 52.02 51.60
  A 0.28 0.28 0.0 0 0 52.31 51.30
  C 52.12 46.68 51.07 37.77 56.80 38.23
  Q 57.92 38.33 57.96 37.20
  L 58.04 35.04
  Q 58.08 33.98 57.03 33.98
  Q 54.01 33.97 52.80 36.69
  A 0.35 0.35 0.0 0 1 52.13 36.52
  Z
  M 72.88 50.38
  L 73.02 51.03
  Q 73.11 51.45 73.54 51.44
  L 76.79 51.42
  Q 77.29 51.41 77.33 50.91
  Q 78.06 41.14 77.07 38.00
  C 75.22 32.10 66.28 33.70 62.60 36.10
  Q 61.81 36.61 62.28 37.42
  L 63.22 39.05
  A 1.00 0.99 61.0 0 0 64.54 39.43
  Q 67.76 37.72 71.38 38.50
  Q 71.97 38.62 72.19 39.18
  L 72.33 39.51
  A 0.58 0.58 0.0 0 1 71.77 40.31
  C 66.28 40.06 58.74 42.58 62.60 49.90
  A 1.62 1.57 0.5 0 0 63.27 50.56
  Q 67.78 52.83 72.02 50.03
  Q 72.70 49.58 72.88 50.38
  Z
  M 88.41 38.18
  Q 91.27 37.81 93.94 39.02
  A 0.30 0.30 0.0 0 0 94.34 38.84
  L 95.31 35.97
  A 0.36 0.35 -66.8 0 0 95.14 35.54
  C 91.78 33.76 85.09 32.91 83.11 37.05
  C 80.39 42.72 86.78 44.58 90.67 45.41
  A 0.83 0.83 0.0 0 1 91.28 46.50
  L 91.13 46.92
  A 1.20 1.18 -83.2 0 1 90.14 47.71
  Q 87.61 47.97 85.33 46.85
  A 1.94 1.94 0.0 0 0 83.36 50.17
  Q 87.13 52.84 91.95 51.70
  C 95.87 50.78 97.99 47.03 95.66 43.51
  C 94.19 41.29 90.71 40.76 88.25 40.00
  A 0.93 0.93 0.0 0 1 88.41 38.18
  Z
  M 142.58 50.25
  L 142.63 50.92
  Q 142.67 51.43 143.17 51.43
  L 146.71 51.42
  Q 147.10 51.42 147.12 51.04
  Q 147.71 41.78 146.98 38.74
  C 145.36 32.03 136.24 33.41 132.29 36.19
  Q 131.59 36.68 132.02 37.42
  L 133.05 39.18
  A 0.86 0.85 59.7 0 0 134.20 39.49
  Q 137.79 37.44 141.67 38.77
  A 0.83 0.83 0.0 0 1 141.34 40.38
  C 135.69 39.97 128.93 42.62 132.24 49.78
  A 1.48 1.44 1.7 0 0 132.90 50.46
  Q 137.59 52.93 141.88 49.92
  Q 142.52 49.48 142.58 50.25
  Z
  M 157.58 35.44
  L 157.59 34.96
  Q 157.60 34.33 156.96 34.34
  L 153.04 34.40
  Q 152.48 34.41 152.48 34.97
  L 152.48 51.26
  Q 152.48 51.54 152.76 51.55
  L 157.28 51.63
  Q 157.69 51.63 157.69 51.22
  L 157.69 40.50
  A 1.97 1.97 0.0 0 1 159.50 38.54
  L 160.21 38.49
  Q 162.88 38.26 162.91 40.95
  L 163.03 51.30
  Q 163.03 51.57 163.30 51.57
  L 167.78 51.61
  Q 168.17 51.61 168.18 51.23
  C 168.34 44.24 170.07 28.52 158.10 35.74
  Q 157.57 36.07 157.58 35.44
  Z
  M 183.85 50.26
  L 183.98 50.90
  Q 184.10 51.44 184.65 51.43
  L 187.96 51.42
  Q 188.43 51.42 188.46 50.95
  Q 189.05 41.11 188.07 38.00
  C 186.24 32.13 177.37 33.68 173.60 36.10
  Q 172.82 36.60 173.28 37.41
  L 174.29 39.17
  Q 174.70 39.88 175.42 39.49
  Q 178.61 37.76 182.22 38.43
  Q 182.94 38.56 183.22 39.24
  L 183.33 39.51
  A 0.54 0.54 0.0 0 1 182.83 40.26
  C 177.68 40.25 171.25 41.57 173.01 48.33
  C 174.17 52.80 180.23 51.94 183.08 49.96
  Q 183.69 49.54 183.85 50.26
  Z
  M 201.46 45.41
  A 1.19 1.19 0.0 0 1 201.11 47.69
  Q 198.60 47.93 196.16 46.94
  A 1.91 1.91 0.0 0 0 194.39 50.30
  Q 197.13 52.12 201.47 51.93
  Q 207.63 51.65 207.30 45.53
  C 207.09 41.63 202.98 41.09 199.22 39.95
  A 0.63 0.63 0.0 0 1 198.83 39.10
  L 199.00 38.69
  A 1.38 1.37 17.9 0 1 200.58 37.89
  L 205.05 38.93
  Q 205.29 38.99 205.37 38.75
  L 206.32 35.95
  A 0.30 0.30 0.0 0 0 206.18 35.58
  C 202.33 33.53 194.50 32.80 193.65 38.60
  C 192.86 43.97 197.89 43.92 201.46 45.41
  Z
  M 106.50 34.79
  A 0.33 0.33 0.0 0 0 106.17 34.46
  L 101.63 34.46
  A 0.33 0.33 0.0 0 0 101.30 34.79
  L 101.30 51.27
  A 0.33 0.33 0.0 0 0 101.63 51.60
  L 106.17 51.60
  A 0.33 0.33 0.0 0 0 106.50 51.27
  L 106.50 34.79
  Z
  M 126.8644 34.7445
  A 0.29 0.29 0.0 0 0 126.5750 34.4540
  L 122.0350 34.4461
  A 0.29 0.29 0.0 0 0 121.7445 34.7355
  L 121.7156 51.2955
  A 0.29 0.29 0.0 0 0 122.0050 51.5860
  L 126.5450 51.5939
  A 0.29 0.29 0.0 0 0 126.8355 51.3045
  L 126.8644 34.7445
  Z
  M 207.08 60.80
  A 0.31 0.31 0.0 0 0 206.77 60.49
  L 22.55 60.49
  A 0.31 0.31 0.0 0 0 22.24 60.80
  L 22.24 67.18
  A 0.31 0.31 0.0 0 0 22.55 67.49
  L 206.77 67.49
  A 0.31 0.31 0.0 0 0 207.08 67.18
  L 207.08 60.80
  Z"
/>
<rect fill="#004aad" x="22.24" y="13.01" width="184.84" height="7.00" rx="0.35"/>
<rect fill="#004aad" x="-2.59" y="-2.07" transform="translate(103.90,28.55) rotate(0.3)" width="5.18" height="4.14" rx="0.32"/>
<rect fill="#004aad" x="111.49" y="26.50" width="5.12" height="25.10" rx="0.27"/>
<rect fill="#004aad" x="-2.57" y="-2.07" transform="translate(124.29,28.55) rotate(0.3)" width="5.14" height="4.14" rx="0.31"/>
<path fill="#004aad" d="
  M 38.49 38.96
  C 45.44 41.58 42.94 51.06 35.48 51.42
  Q 29.58 51.70 23.63 51.53
  Q 23.10 51.51 23.10 50.98
  L 23.08 27.98
  Q 23.08 27.36 23.70 27.34
  C 28.25 27.16 38.29 26.44 40.52 30.21
  Q 43.26 34.84 38.41 38.32
  Q 37.85 38.72 38.49 38.96
  Z
  M 29.62 37.33
  C 31.33 37.01 34.98 36.46 35.48 34.40
  A 1.85 1.84 8.4 0 0 33.78 32.12
  L 29.62 31.90
  Q 28.58 31.85 28.58 32.89
  L 28.58 36.46
  Q 28.58 37.53 29.62 37.33
  Z
  M 28.57 42.01
  L 28.59 46.79
  A 0.38 0.38 0.0 0 0 28.97 47.17
  L 32.43 47.16
  A 4.52 2.56 -0.2 0 0 36.94 44.59
  L 36.94 44.17
  A 4.52 2.56 -0.2 0 0 32.41 41.62
  L 28.95 41.63
  A 0.38 0.38 0.0 0 0 28.57 42.01
  Z"
/>
<path fill="#ffde59" d="
  M 35.48 34.40
  C 34.98 36.46 31.33 37.01 29.62 37.33
  Q 28.58 37.53 28.58 36.46
  L 28.58 32.89
  Q 28.58 31.85 29.62 31.90
  L 33.78 32.12
  A 1.85 1.84 8.4 0 1 35.48 34.40
  Z"
/>
<path fill="#004aad" d="
  M 52.80 36.69
  Q 54.01 33.97 57.03 33.98
  Q 58.08 33.98 58.04 35.04
  L 57.96 37.20
  Q 57.92 38.33 56.80 38.23
  C 51.07 37.77 52.12 46.68 52.31 51.30
  A 0.28 0.28 0.0 0 1 52.02 51.60
  L 47.28 51.56
  Q 46.99 51.56 46.99 51.28
  L 46.98 34.99
  Q 46.98 34.46 47.51 34.46
  L 51.73 34.46
  Q 52.25 34.46 52.22 34.98
  L 52.13 36.52
  A 0.35 0.35 0.0 0 0 52.80 36.69
  Z"
/>
<path fill="#004aad" d="
  M 72.02 50.03
  Q 67.78 52.83 63.27 50.56
  A 1.62 1.57 0.5 0 1 62.60 49.90
  C 58.74 42.58 66.28 40.06 71.77 40.31
  A 0.58 0.58 0.0 0 0 72.33 39.51
  L 72.19 39.18
  Q 71.97 38.62 71.38 38.50
  Q 67.76 37.72 64.54 39.43
  A 1.00 0.99 61.0 0 1 63.22 39.05
  L 62.28 37.42
  Q 61.81 36.61 62.60 36.10
  C 66.28 33.70 75.22 32.10 77.07 38.00
  Q 78.06 41.14 77.33 50.91
  Q 77.29 51.41 76.79 51.42
  L 73.54 51.44
  Q 73.11 51.45 73.02 51.03
  L 72.88 50.38
  Q 72.70 49.58 72.02 50.03
  Z
  M 71.61 43.72
  L 67.08 44.38
  A 0.73 0.73 0.0 0 0 66.46 45.21
  L 66.54 45.77
  A 2.38 2.12 -8.3 0 0 69.20 47.52
  L 70.47 47.34
  A 2.38 2.12 -8.3 0 0 72.52 44.90
  L 72.44 44.33
  A 0.73 0.73 0.0 0 0 71.61 43.72
  Z"
/>
<path fill="#004aad" d="
  M 88.41 38.18
  A 0.93 0.93 0.0 0 0 88.25 40.00
  C 90.71 40.76 94.19 41.29 95.66 43.51
  C 97.99 47.03 95.87 50.78 91.95 51.70
  Q 87.13 52.84 83.36 50.17
  A 1.94 1.94 0.0 0 1 85.33 46.85
  Q 87.61 47.97 90.14 47.71
  A 1.20 1.18 -83.2 0 0 91.13 46.92
  L 91.28 46.50
  A 0.83 0.83 0.0 0 0 90.67 45.41
  C 86.78 44.58 80.39 42.72 83.11 37.05
  C 85.09 32.91 91.78 33.76 95.14 35.54
  A 0.36 0.35 -66.8 0 1 95.31 35.97
  L 94.34 38.84
  A 0.30 0.30 0.0 0 1 93.94 39.02
  Q 91.27 37.81 88.41 38.18
  Z"
/>
<path fill="#004aad" d="
  M 141.88 49.92
  Q 137.59 52.93 132.90 50.46
  A 1.48 1.44 1.7 0 1 132.24 49.78
  C 128.93 42.62 135.69 39.97 141.34 40.38
  A 0.83 0.83 0.0 0 0 141.67 38.77
  Q 137.79 37.44 134.20 39.49
  A 0.86 0.85 59.7 0 1 133.05 39.18
  L 132.02 37.42
  Q 131.59 36.68 132.29 36.19
  C 136.24 33.41 145.36 32.03 146.98 38.74
  Q 147.71 41.78 147.12 51.04
  Q 147.10 51.42 146.71 51.42
  L 143.17 51.43
  Q 142.67 51.43 142.63 50.92
  L 142.58 50.25
  Q 142.52 49.48 141.88 49.92
  Z
  M 141.37 43.71
  L 136.79 44.39
  A 0.72 0.72 0.0 0 0 136.19 45.20
  L 136.27 45.78
  A 2.36 2.12 -8.4 0 0 138.92 47.53
  L 140.24 47.33
  A 2.36 2.12 -8.4 0 0 142.27 44.89
  L 142.18 44.32
  A 0.72 0.72 0.0 0 0 141.37 43.71
  Z"
/>
<path fill="#004aad" d="
  M 158.10 35.74
  C 170.07 28.52 168.34 44.24 168.18 51.23
  Q 168.17 51.61 167.78 51.61
  L 163.30 51.57
  Q 163.03 51.57 163.03 51.30
  L 162.91 40.95
  Q 162.88 38.26 160.21 38.49
  L 159.50 38.54
  A 1.97 1.97 0.0 0 0 157.69 40.50
  L 157.69 51.22
  Q 157.69 51.63 157.28 51.63
  L 152.76 51.55
  Q 152.48 51.54 152.48 51.26
  L 152.48 34.97
  Q 152.48 34.41 153.04 34.40
  L 156.96 34.34
  Q 157.60 34.33 157.59 34.96
  L 157.58 35.44
  Q 157.57 36.07 158.10 35.74
  Z"
/>
<path fill="#004aad" d="
  M 183.08 49.96
  C 180.23 51.94 174.17 52.80 173.01 48.33
  C 171.25 41.57 177.68 40.25 182.83 40.26
  A 0.54 0.54 0.0 0 0 183.33 39.51
  L 183.22 39.24
  Q 182.94 38.56 182.22 38.43
  Q 178.61 37.76 175.42 39.49
  Q 174.70 39.88 174.29 39.17
  L 173.28 37.41
  Q 172.82 36.60 173.60 36.10
  C 177.37 33.68 186.24 32.13 188.07 38.00
  Q 189.05 41.11 188.46 50.95
  Q 188.43 51.42 187.96 51.42
  L 184.65 51.43
  Q 184.10 51.44 183.98 50.90
  L 183.85 50.26
  Q 183.69 49.54 183.08 49.96
  Z
  M 182.63 43.71
  L 178.05 44.39
  A 0.72 0.72 0.0 0 0 177.45 45.20
  L 177.52 45.72
  A 2.36 2.18 -8.4 0 0 180.18 47.53
  L 181.50 47.33
  A 2.36 2.18 -8.4 0 0 183.52 44.83
  L 183.44 44.32
  A 0.72 0.72 0.0 0 0 182.63 43.71
  Z"
/>
<path fill="#004aad" d="
  M 201.46 45.41
  C 197.89 43.92 192.86 43.97 193.65 38.60
  C 194.50 32.80 202.33 33.53 206.18 35.58
  A 0.30 0.30 0.0 0 1 206.32 35.95
  L 205.37 38.75
  Q 205.29 38.99 205.05 38.93
  L 200.58 37.89
  A 1.38 1.37 17.9 0 0 199.00 38.69
  L 198.83 39.10
  A 0.63 0.63 0.0 0 0 199.22 39.95
  C 202.98 41.09 207.09 41.63 207.30 45.53
  Q 207.63 51.65 201.47 51.93
  Q 197.13 52.12 194.39 50.30
  A 1.91 1.91 0.0 0 1 196.16 46.94
  Q 198.60 47.93 201.11 47.69
  A 1.19 1.19 0.0 0 0 201.46 45.41
  Z"
/>
<rect fill="#004aad" x="101.30" y="34.46" width="5.20" height="17.14" rx="0.33"/>
<rect fill="#004aad" x="-2.56" y="-8.57" transform="translate(124.29,43.02) rotate(0.1)" width="5.12" height="17.14" rx="0.29"/>
<path fill="#ffde59" d="
  M 28.57 42.01
  A 0.38 0.38 0.0 0 1 28.95 41.63
  L 32.41 41.62
  A 4.52 2.56 -0.2 0 1 36.94 44.17
  L 36.94 44.59
  A 4.52 2.56 -0.2 0 1 32.43 47.16
  L 28.97 47.17
  A 0.38 0.38 0.0 0 1 28.59 46.79
  L 28.57 42.01
  Z"
/>
<path fill="#ffde59" d="
  M 71.61 43.72
  A 0.73 0.73 0.0 0 1 72.44 44.33
  L 72.52 44.90
  A 2.38 2.12 -8.3 0 1 70.47 47.34
  L 69.20 47.52
  A 2.38 2.12 -8.3 0 1 66.54 45.77
  L 66.46 45.21
  A 0.73 0.73 0.0 0 1 67.08 44.38
  L 71.61 43.72
  Z"
/>
<path fill="#ffde59" d="
  M 141.37 43.71
  A 0.72 0.72 0.0 0 1 142.18 44.32
  L 142.27 44.89
  A 2.36 2.12 -8.4 0 1 140.24 47.33
  L 138.92 47.53
  A 2.36 2.12 -8.4 0 1 136.27 45.78
  L 136.19 45.20
  A 0.72 0.72 0.0 0 1 136.79 44.39
  L 141.37 43.71
  Z"
/>
<path fill="#ffde59" d="
  M 182.63 43.71
  A 0.72 0.72 0.0 0 1 183.44 44.32
  L 183.52 44.83
  A 2.36 2.18 -8.4 0 1 181.50 47.33
  L 180.18 47.53
  A 2.36 2.18 -8.4 0 1 177.52 45.72
  L 177.45 45.20
  A 0.72 0.72 0.0 0 1 178.05 44.39
  L 182.63 43.71
  Z"
/>
<rect fill="#004aad" x="22.24" y="60.49" width="184.84" height="7.00" rx="0.31"/>
</svg>
